<svg width="1153" height="390" viewBox="0 0 1153 390" fill="none" xmlns="http://www.w3.org/2000/svg">
<path d="M355.072 81.4024H-497.591V79.7567H354.825L424.885 6.31677H710.912V7.96252H425.131L355.072 81.4024Z" fill="white" fill-opacity="0.08"/>
<path d="M426.328 123.556H-601V121.896H425.958L506.565 36.6148L507.18 38.0672L426.328 123.556Z" fill="white" fill-opacity="0.08"/>
<path d="M531.828 156.488H-393.41V154.831H531.581L592.517 90.6235H771.877V92.2805H592.763L531.828 156.488Z" fill="white" fill-opacity="0.08"/>
<path d="M709.491 327.078H445.715L445.592 326.87L349.83 225.335H-567.045V223.67H350.076L350.2 223.878L445.961 325.413H709.121L789.128 240.523H1121.46V242.188H789.374L709.491 327.078Z" fill="white" fill-opacity="0.08"/>
<path d="M715.803 389.648H447.487L447.364 389.441L337.946 274.063H-313.151V272.409H338.192H338.315L447.857 387.994H715.557L811.437 286.883H1094.89H1095.01L1144.62 339.196L1144.12 340.643L1094.65 288.537H811.683L715.803 389.648Z" fill="white" fill-opacity="0.08"/>
<path d="M688.134 281.63H482.37L482.247 281.424L395.61 190.426H-489.1V188.778H395.856L395.979 188.984L482.617 279.983H687.888L760.25 204.014H1074.56L1151.84 122.897L1152.33 124.338L1074.93 205.661H760.496L688.134 281.63Z" fill="white" fill-opacity="0.08"/>
<path d="M673.273 230.915H500.737H500.614L468.594 197.16L469.087 195.719L501.106 229.269H672.904L733.125 166.286H1031.03L1082.39 112.359L1082.88 113.8L1031.28 167.932H733.371L673.273 230.915Z" fill="white" fill-opacity="0.08"/>
<path d="M496.867 123.556L496.375 122.105L571.151 43.137H825.488H825.611L864.229 84.1756H974.303L1049.2 5L1049.69 6.24361L974.549 85.8337H863.983L863.86 85.6265L825.119 44.7951H571.397L496.867 123.556Z" fill="white" fill-opacity="0.08"/>
<path d="M627.566 194.031H539.593V192.374H627.197L683.549 132.739H1021.42L1080.72 70.2056L1081.34 71.6551L1021.78 134.396H683.795L627.566 194.031Z" fill="white" fill-opacity="0.08"/>
<path d="M595.648 163.074L595.155 161.64L638.02 116.969H886.091V118.608H638.266L595.648 163.074Z" fill="white" fill-opacity="0.08"/>
<circle cx="1124.03" cy="241.03" r="3.03" fill="white" fill-opacity="0.08"/>
<circle cx="1084.03" cy="110.03" r="3.03" fill="white" fill-opacity="0.08"/>
<circle cx="1051.03" cy="3.03" r="3.03" fill="white" fill-opacity="0.08"/>
<circle cx="775.03" cy="91.03" r="3.03" fill="white" fill-opacity="0.08"/>
<circle cx="1083.03" cy="69.03" r="3.03" fill="white" fill-opacity="0.08"/>
<circle cx="510.03" cy="35.03" r="3.03" fill="white" fill-opacity="0.08"/>
<circle cx="714.03" cy="7.03" r="3.03" fill="white" fill-opacity="0.08"/>
</svg>
